<svg width="218" height="57" viewBox="0 0 218 57" fill="none" xmlns="http://www.w3.org/2000/svg">
<path d="M115.5 28.5H116V28C116 23.8695 112.802 20.5 108.596 20.5C104.407 20.5 101 23.8515 101 28V28.5H101.5H101.53H101.56H101.59H101.62H101.65H101.679H101.708H101.738H101.766H101.795H101.824H101.852H101.881H101.909H101.937H101.965H101.993H102.02H102.047H102.075H102.102H102.129H102.156H102.182H102.209H102.235H102.261H102.287H102.313H102.339H102.365H102.39H102.415H102.44H102.465H102.49H102.515H102.54H102.564H102.588H102.613H102.637H102.66H102.684H102.708H102.731H102.755H102.778H102.801H102.824H102.847H102.869H102.892H102.914H102.936H102.959H102.981H103.002H103.024H103.046H103.067H103.089H103.11H103.131H103.152H103.173H103.193H103.214H103.234H103.255H103.275H103.295H103.315H103.335H103.355H103.374H103.394H103.413H103.432H103.451H103.47H103.489H103.508H103.527H103.545H103.564H103.582H103.6H103.618H103.636H103.654H103.672H103.69H103.707H103.725H103.742H103.759H103.776H103.793H103.81H103.827H103.843H103.86H103.877H103.893H103.909H103.925H103.941H103.957H103.973H103.989H104.005H104.02H104.036H104.051H104.066H104.081H104.097H104.112H104.126H104.141H104.156H104.17H104.185H104.199H104.214H104.228H104.242H104.256H104.27H104.284H104.298H104.312H104.325H104.339H104.352H104.366H104.379H104.392H104.405H104.418H104.431H104.444H104.457H104.469H104.482H104.495H104.507H104.52H104.532H104.544H104.556H104.568H104.58H104.592H104.604H104.616H104.628H104.639H104.651H104.662H104.674H104.685H104.697H104.708H104.719H104.73H104.741H104.752H104.763H104.774H104.785H104.795H104.806H104.816H104.827H104.837H104.848H104.858H104.868H104.879H104.889H104.899H104.909H104.919H104.929H104.939H104.949H104.958H104.968H104.978H104.987H104.997H105.006H105.016H105.025H105.035H105.044H105.053H105.062H105.072H105.081H105.09H105.099H105.108H105.117H105.126H105.135H105.143H105.152H105.161H105.169H105.178H105.187H105.195H105.204H105.212H105.221H105.229H105.238H105.246H105.254H105.262H105.271H105.279H105.287H105.295H105.303H105.311H105.319H105.328H105.336H105.343H105.351H105.359H105.367H105.375H105.383H105.391H105.398H105.406H105.414H105.422H105.429H105.437H105.445H105.452H105.46H105.467H105.475H105.483H105.49H105.498H105.505H105.513H105.52H105.528H105.535H105.542H105.55H105.557H105.565H105.572H105.579H105.587H105.594H105.601H105.609H105.616H105.623H105.631H105.638H105.645H105.653H105.66H105.667H105.675H105.682H105.689H105.696H105.704H105.711H105.718H105.726H105.733H105.74H105.747H105.755H105.762H105.769H105.777H105.784H105.791H105.799H105.806H105.813H105.821H105.828H105.835H105.843H105.85H105.858H105.865H105.873H105.88H105.887H105.895H105.902H105.91H105.917H105.925H105.933H105.94H105.948H105.955H105.963H105.971H105.978H105.986H105.994H106.002H106.009H106.017H106.025H106.033H106.041H106.049H106.057H106.064H106.072H106.08H106.089H106.097H106.105H106.113H106.121H106.129H106.137H106.146H106.154H106.162H106.171H106.179H106.188H106.196H106.205H106.213H106.222H106.23H106.239H106.248H106.257H106.265H106.274H106.283H106.292H106.301H106.31H106.319H106.328H106.337H106.346H106.356H106.365H106.374H106.384H106.393H106.403H106.412H106.422H106.432H106.441H106.451H106.461H106.471H106.481H106.491H106.501H106.511H106.521H106.531H106.541H106.552H106.562H106.572H106.583H106.594H106.604H106.615H106.626H106.636H106.647H106.658H106.669H106.68H106.692H106.703H106.714H106.725H106.737H106.748H106.76H106.772H106.783H106.795H106.807H106.819H106.831H106.843H106.855H106.867H106.88H106.892H106.904H106.917H106.93H106.942H106.955H106.968H106.981H106.994H107.007H107.02H107.033H107.047H107.06H107.074H107.087H107.101H107.115H107.129H107.143H107.157H107.171H107.185H107.199H107.214H107.228H107.243H107.257H107.272H107.287H107.302H107.317H107.332H107.347H107.363H107.378H107.394H107.409H107.425H107.441H107.457H107.473H107.489H107.505H107.522H107.538H107.555H107.571H107.588H107.605H107.622H107.639H107.656H107.673H107.691H107.708H107.726H107.744H107.762H107.78H107.798H107.816H107.834H107.852H107.871H107.89H107.908H107.927H107.946H107.965H107.985H108.004H108.023H108.043H108.063H108.082H108.102H108.122H108.143H108.163H108.183H108.204H108.225H108.245H108.266H108.287H108.309H108.33H108.351H108.373H108.395H108.416H108.438H108.461H108.483H108.505H108.528H108.55H108.573H108.596H108.619H108.642H108.664H108.687H108.709H108.731H108.753H108.775H108.797H108.818H108.84H108.861H108.882H108.903H108.924H108.945H108.965H108.986H109.006H109.026H109.046H109.066H109.086H109.106H109.125H109.145H109.164H109.183H109.202H109.221H109.24H109.258H109.277H109.295H109.313H109.331H109.349H109.367H109.385H109.402H109.42H109.437H109.455H109.472H109.489H109.505H109.522H109.539H109.555H109.572H109.588H109.604H109.62H109.636H109.652H109.668H109.683H109.699H109.714H109.73H109.745H109.76H109.775H109.79H109.804H109.819H109.833H109.848H109.862H109.876H109.891H109.905H109.918H109.932H109.946H109.96H109.973H109.986H110H110.013H110.026H110.039H110.052H110.065H110.078H110.09H110.103H110.115H110.128H110.14H110.152H110.164H110.176H110.188H110.2H110.212H110.223H110.235H110.246H110.258H110.269H110.28H110.292H110.303H110.314H110.325H110.335H110.346H110.357H110.367H110.378H110.388H110.399H110.409H110.419H110.429H110.44H110.45H110.46H110.469H110.479H110.489H110.499H110.508H110.518H110.527H110.537H110.546H110.555H110.564H110.573H110.583H110.592H110.6H110.609H110.618H110.627H110.636H110.644H110.653H110.661H110.67H110.678H110.687H110.695H110.703H110.711H110.72H110.728H110.736H110.744H110.752H110.76H110.767H110.775H110.783H110.791H110.798H110.806H110.814H110.821H110.829H110.836H110.843H110.851H110.858H110.865H110.873H110.88H110.887H110.894H110.901H110.908H110.915H110.922H110.929H110.936H110.943H110.95H110.957H110.963H110.97H110.977H110.984H110.99H110.997H111.003H111.01H111.017H111.023H111.03H111.036H111.043H111.049H111.055H111.062H111.068H111.075H111.081H111.087H111.094H111.1H111.106H111.112H111.119H111.125H111.131H111.137H111.143H111.15H111.156H111.162H111.168H111.174H111.18H111.186H111.193H111.199H111.205H111.211H111.217H111.223H111.229H111.235H111.241H111.247H111.253H111.259H111.265H111.272H111.278H111.284H111.29H111.296H111.302H111.308H111.314H111.32H111.326H111.332H111.339H111.345H111.351H111.357H111.363H111.369H111.376H111.382H111.388H111.394H111.4H111.407H111.413H111.419H111.426H111.432H111.438H111.445H111.451H111.457H111.464H111.47H111.477H111.483H111.49H111.496H111.503H111.51H111.516H111.523H111.53H111.536H111.543H111.55H111.557H111.563H111.57H111.577H111.584H111.591H111.598H111.605H111.612H111.619H111.626H111.634H111.641H111.648H111.655H111.663H111.67H111.677H111.685H111.692H111.7H111.708H111.715H111.723H111.731H111.738H111.746H111.754H111.762H111.77H111.778H111.786H111.794H111.802H111.811H111.819H111.827H111.836H111.844H111.853H111.861H111.87H111.878H111.887H111.896H111.905H111.914H111.923H111.932H111.941H111.95H111.959H111.968H111.978H111.987H111.997H112.006H112.016H112.026H112.035H112.045H112.055H112.065H112.075H112.085H112.095H112.106H112.116H112.126H112.137H112.147H112.158H112.169H112.18H112.19H112.201H112.212H112.224H112.235H112.246H112.257H112.269H112.28H112.292H112.304H112.316H112.327H112.339H112.351H112.364H112.376H112.388H112.401H112.413H112.426H112.438H112.451H112.464H112.477H112.49H112.503H112.516H112.53H112.543H112.557H112.57H112.584H112.598H112.612H112.626H112.64H112.654H112.669H112.683H112.698H112.713H112.727H112.742H112.757H112.772H112.788H112.803H112.818H112.834H112.849H112.865H112.881H112.897H112.913H112.929H112.946H112.962H112.979H112.996H113.012H113.029H113.046H113.064H113.081H113.098H113.116H113.133H113.151H113.169H113.187H113.205H113.224H113.242H113.261H113.279H113.298H113.317H113.336H113.355H113.374H113.394H113.413H113.433H113.453H113.473H113.493H113.513H113.534H113.554H113.575H113.596H113.617H113.638H113.659H113.68H113.702H113.724H113.745H113.767H113.789H113.812H113.834H113.856H113.879H113.902H113.925H113.948H113.971H113.995H114.018H114.042H114.066H114.09H114.114H114.138H114.163H114.187H114.212H114.237H114.262H114.288H114.313H114.339H114.364H114.39H114.416H114.442H114.469H114.495H114.522H114.549H114.576H114.603H114.631H114.658H114.686H114.714H114.742H114.77H114.798H114.827H114.856H114.885H114.914H114.943H114.972H115.002H115.032H115.062H115.092H115.122H115.153H115.183H115.214H115.245H115.276H115.308H115.339H115.371H115.403H115.435H115.468H115.5Z" stroke="black"/>
<line x1="149.5" y1="28.5" x2="68.5" y2="28.5" stroke="black"/>
<line x1="117.608" y1="16.3385" x2="112.868" y2="21.4899" stroke="black"/>
<line y1="-0.5" x2="7" y2="-0.5" transform="matrix(0.7464 0.665498 0.665498 -0.7464 98.5 17)" stroke="black"/>
<path d="M117.809 8L110.5 21.1465" stroke="black"/>
<path d="M100.5 7L106 21" stroke="black"/>
<path d="M108.5 0L108.5 21.04" stroke="black"/>
<line x1="135.914" y1="20.483" x2="115.629" y2="25.9182" stroke="black"/>
<line y1="-0.5" x2="21" y2="-0.5" transform="matrix(0.965926 0.258819 0.258819 -0.965926 81.5 20)" stroke="black"/>
<line x1="144.195" y1="6.43301" x2="114.75" y2="23.433" stroke="black"/>
<line y1="-0.5" x2="34" y2="-0.5" transform="matrix(-0.866025 -0.5 -0.5 0.866025 101.945 24)" stroke="black"/>
<path d="M23.1552 39.14H24.9552V53H23.1552V46.56H18.5952V53H16.7952V39.14H18.5952V45H23.1552V39.14ZM38.9387 47.76C38.9387 48.5867 38.8653 49.34 38.7187 50.02C38.572 50.6867 38.3453 51.26 38.0387 51.74C37.7453 52.22 37.3653 52.5933 36.8987 52.86C36.4453 53.1267 35.9053 53.26 35.2787 53.26C34.652 53.26 34.1053 53.1267 33.6387 52.86C33.172 52.5933 32.7853 52.22 32.4787 51.74C32.1853 51.26 31.9653 50.6867 31.8187 50.02C31.672 49.34 31.5987 48.5867 31.5987 47.76C31.5987 46.9467 31.672 46.2 31.8187 45.52C31.9653 44.84 32.1853 44.26 32.4787 43.78C32.7853 43.2867 33.172 42.9067 33.6387 42.64C34.1053 42.3733 34.652 42.24 35.2787 42.24C35.9053 42.24 36.4453 42.3733 36.8987 42.64C37.3653 42.9067 37.7453 43.2867 38.0387 43.78C38.3453 44.26 38.572 44.84 38.7187 45.52C38.8653 46.2 38.9387 46.9467 38.9387 47.76ZM37.1387 47.76C37.1387 47.1733 37.1053 46.64 37.0387 46.16C36.972 45.6667 36.8653 45.2467 36.7187 44.9C36.572 44.54 36.3787 44.2667 36.1387 44.08C35.8987 43.88 35.612 43.78 35.2787 43.78C34.932 43.78 34.6387 43.88 34.3987 44.08C34.172 44.2667 33.9787 44.54 33.8187 44.9C33.672 45.2467 33.5653 45.6667 33.4987 46.16C33.432 46.64 33.3987 47.1733 33.3987 47.76C33.3987 48.3467 33.432 48.8867 33.4987 49.38C33.5653 49.86 33.672 50.2733 33.8187 50.62C33.9787 50.9667 34.172 51.24 34.3987 51.44C34.6387 51.6267 34.932 51.72 35.2787 51.72C35.612 51.72 35.8987 51.6267 36.1387 51.44C36.3787 51.24 36.572 50.9667 36.7187 50.62C36.8653 50.2733 36.972 49.86 37.0387 49.38C37.1053 48.8867 37.1387 48.3467 37.1387 47.76ZM49.9965 44.06C49.5698 43.8733 49.0898 43.78 48.5565 43.78C48.0632 43.78 47.6032 43.8667 47.1765 44.04V53H45.4565V42.96C45.8432 42.7733 46.2832 42.62 46.7765 42.5C47.2832 42.3667 47.8365 42.3 48.4365 42.3C48.7565 42.3 49.0765 42.32 49.3965 42.36C49.7165 42.4 50.0165 42.4733 50.2965 42.58L49.9965 44.06ZM57.739 53H56.019V42.5H57.739V53ZM56.879 40.64C56.5723 40.64 56.3057 40.54 56.079 40.34C55.8657 40.1267 55.759 39.8467 55.759 39.5C55.759 39.1533 55.8657 38.88 56.079 38.68C56.3057 38.4667 56.5723 38.36 56.879 38.36C57.1857 38.36 57.4457 38.4667 57.659 38.68C57.8857 38.88 57.999 39.1533 57.999 39.5C57.999 39.8467 57.8857 40.1267 57.659 40.34C57.4457 40.54 57.1857 40.64 56.879 40.64ZM69.6827 43.78C69.3894 44.2733 69.0561 44.86 68.6827 45.54C68.3094 46.22 67.9361 46.92 67.5627 47.64C67.2027 48.3467 66.8561 49.0467 66.5227 49.74C66.2027 50.42 65.9427 51.0133 65.7427 51.52H69.8227V53H63.9627V51.76C64.1761 51.1733 64.4494 50.52 64.7827 49.8C65.1161 49.08 65.4627 48.36 65.8227 47.64C66.1961 46.92 66.5561 46.24 66.9027 45.6C67.2627 44.9467 67.5694 44.4067 67.8227 43.98H64.2027V42.5H69.6827V43.78ZM82.5363 47.76C82.5363 48.5867 82.463 49.34 82.3163 50.02C82.1697 50.6867 81.943 51.26 81.6363 51.74C81.343 52.22 80.963 52.5933 80.4963 52.86C80.043 53.1267 79.503 53.26 78.8763 53.26C78.2497 53.26 77.703 53.1267 77.2363 52.86C76.7697 52.5933 76.383 52.22 76.0763 51.74C75.783 51.26 75.563 50.6867 75.4163 50.02C75.2697 49.34 75.1963 48.5867 75.1963 47.76C75.1963 46.9467 75.2697 46.2 75.4163 45.52C75.563 44.84 75.783 44.26 76.0763 43.78C76.383 43.2867 76.7697 42.9067 77.2363 42.64C77.703 42.3733 78.2497 42.24 78.8763 42.24C79.503 42.24 80.043 42.3733 80.4963 42.64C80.963 42.9067 81.343 43.2867 81.6363 43.78C81.943 44.26 82.1697 44.84 82.3163 45.52C82.463 46.2 82.5363 46.9467 82.5363 47.76ZM80.7363 47.76C80.7363 47.1733 80.703 46.64 80.6363 46.16C80.5697 45.6667 80.463 45.2467 80.3163 44.9C80.1697 44.54 79.9763 44.2667 79.7363 44.08C79.4963 43.88 79.2097 43.78 78.8763 43.78C78.5297 43.78 78.2363 43.88 77.9963 44.08C77.7697 44.2667 77.5763 44.54 77.4163 44.9C77.2697 45.2467 77.163 45.6667 77.0963 46.16C77.0297 46.64 76.9963 47.1733 76.9963 47.76C76.9963 48.3467 77.0297 48.8867 77.0963 49.38C77.163 49.86 77.2697 50.2733 77.4163 50.62C77.5763 50.9667 77.7697 51.24 77.9963 51.44C78.2363 51.6267 78.5297 51.72 78.8763 51.72C79.2097 51.72 79.4963 51.6267 79.7363 51.44C79.9763 51.24 80.1697 50.9667 80.3163 50.62C80.463 50.2733 80.5697 49.86 80.6363 49.38C80.703 48.8867 80.7363 48.3467 80.7363 47.76ZM89.0541 42.8C89.5475 42.6533 90.0808 42.5333 90.6541 42.44C91.2275 42.3333 91.7541 42.28 92.2341 42.28C92.7541 42.28 93.2275 42.3533 93.6541 42.5C94.0808 42.6333 94.4408 42.8667 94.7341 43.2C95.0408 43.5333 95.2741 43.9867 95.4341 44.56C95.6075 45.12 95.6941 45.82 95.6941 46.66V53H93.9741V46.8C93.9741 45.76 93.8408 45 93.5741 44.52C93.3075 44.04 92.8075 43.8 92.0741 43.8C91.6875 43.8 91.2541 43.8667 90.7741 44V53H89.0541V42.8ZM115.369 49.32C115.369 49.9333 115.302 50.4867 115.169 50.98C115.049 51.46 114.849 51.8733 114.569 52.22C114.302 52.5667 113.942 52.8333 113.489 53.02C113.049 53.2067 112.509 53.3 111.869 53.3C111.362 53.3 110.875 53.22 110.409 53.06C109.942 52.9133 109.522 52.7 109.149 52.42L109.749 51C109.975 51.1733 110.275 51.34 110.649 51.5C111.035 51.6467 111.409 51.72 111.769 51.72C112.049 51.72 112.295 51.6867 112.509 51.62C112.735 51.5533 112.929 51.4333 113.089 51.26C113.249 51.0733 113.369 50.8267 113.449 50.52C113.529 50.2 113.569 49.8 113.569 49.32V39.14H115.369V49.32ZM124.219 53H122.499V42.5H124.219V53ZM123.359 40.64C123.053 40.64 122.786 40.54 122.559 40.34C122.346 40.1267 122.239 39.8467 122.239 39.5C122.239 39.1533 122.346 38.88 122.559 38.68C122.786 38.4667 123.053 38.36 123.359 38.36C123.666 38.36 123.926 38.4667 124.139 38.68C124.366 38.88 124.479 39.1533 124.479 39.5C124.479 39.8467 124.366 40.1267 124.139 40.34C123.926 40.54 123.666 40.64 123.359 40.64ZM137.843 52.7C137.67 52.7667 137.457 52.8333 137.203 52.9C136.963 52.9533 136.703 53 136.423 53.04C136.157 53.0933 135.883 53.1333 135.603 53.16C135.337 53.2 135.09 53.22 134.863 53.22C134.317 53.22 133.817 53.1533 133.363 53.02C132.91 52.9 132.523 52.68 132.203 52.36C131.883 52.04 131.637 51.6067 131.463 51.06C131.29 50.5 131.203 49.8 131.203 48.96V42.5H132.923V48.9C132.923 49.9267 133.077 50.6533 133.383 51.08C133.703 51.4933 134.183 51.7 134.823 51.7C135.037 51.7 135.25 51.6933 135.463 51.68C135.677 51.6533 135.897 51.6067 136.123 51.54V42.5H137.843V52.7ZM157.619 49.32C157.619 49.9333 157.552 50.4867 157.419 50.98C157.299 51.46 157.099 51.8733 156.819 52.22C156.552 52.5667 156.192 52.8333 155.739 53.02C155.299 53.2067 154.759 53.3 154.119 53.3C153.612 53.3 153.125 53.22 152.659 53.06C152.192 52.9133 151.772 52.7 151.399 52.42L151.999 51C152.225 51.1733 152.525 51.34 152.899 51.5C153.285 51.6467 153.659 51.72 154.019 51.72C154.299 51.72 154.545 51.6867 154.759 51.62C154.985 51.5533 155.179 51.4333 155.339 51.26C155.499 51.0733 155.619 50.8267 155.699 50.52C155.779 50.2 155.819 49.8 155.819 49.32V39.14H157.619V49.32ZM166.469 53H164.749V42.5H166.469V53ZM165.609 40.64C165.303 40.64 165.036 40.54 164.809 40.34C164.596 40.1267 164.489 39.8467 164.489 39.5C164.489 39.1533 164.596 38.88 164.809 38.68C165.036 38.4667 165.303 38.36 165.609 38.36C165.916 38.36 166.176 38.4667 166.389 38.68C166.616 38.88 166.729 39.1533 166.729 39.5C166.729 39.8467 166.616 40.1267 166.389 40.34C166.176 40.54 165.916 40.64 165.609 40.64ZM175.193 42.5H177.833V43.98H175.193V49.76C175.193 50.48 175.32 50.9867 175.573 51.28C175.84 51.56 176.193 51.7 176.633 51.7C176.86 51.7 177.073 51.6667 177.273 51.6C177.487 51.5333 177.667 51.4533 177.813 51.36L178.153 52.74C177.607 53.06 177.027 53.22 176.413 53.22C175.427 53.22 174.687 52.9467 174.193 52.4C173.713 51.84 173.473 50.92 173.473 49.64V39.68L175.193 39.38V42.5ZM185.479 51.78C185.986 51.78 186.366 51.64 186.619 51.36C186.886 51.0667 187.019 50.6867 187.019 50.22C187.019 49.9267 186.966 49.68 186.859 49.48C186.752 49.2667 186.612 49.08 186.439 48.92C186.266 48.76 186.066 48.62 185.839 48.5C185.612 48.3667 185.386 48.2267 185.159 48.08C184.932 47.9467 184.712 47.7933 184.499 47.62C184.286 47.4333 184.092 47.2267 183.919 47C183.759 46.76 183.626 46.4933 183.519 46.2C183.426 45.8933 183.379 45.54 183.379 45.14C183.379 44.2733 183.646 43.5733 184.179 43.04C184.726 42.5067 185.459 42.24 186.379 42.24C186.766 42.24 187.132 42.2933 187.479 42.4C187.826 42.4933 188.112 42.6 188.339 42.72L187.959 44.1C187.719 43.9667 187.479 43.8667 187.239 43.8C186.999 43.7333 186.739 43.7 186.459 43.7C186.032 43.7 185.692 43.8267 185.439 44.08C185.186 44.32 185.059 44.6733 185.059 45.14C185.059 45.4067 185.106 45.64 185.199 45.84C185.292 46.0267 185.412 46.2 185.559 46.36C185.719 46.5067 185.892 46.6467 186.079 46.78C186.279 46.9133 186.486 47.04 186.699 47.16C186.952 47.3067 187.199 47.4667 187.439 47.64C187.692 47.8133 187.912 48.02 188.099 48.26C188.299 48.4867 188.459 48.76 188.579 49.08C188.699 49.3867 188.759 49.76 188.759 50.2C188.759 51.12 188.486 51.86 187.939 52.42C187.406 52.98 186.619 53.26 185.579 53.26C185.046 53.26 184.566 53.1867 184.139 53.04C183.712 52.8933 183.392 52.76 183.179 52.64L183.539 51.22C183.739 51.3267 184.006 51.4467 184.339 51.58C184.686 51.7133 185.066 51.78 185.479 51.78ZM201.335 52.7C201.162 52.7667 200.949 52.8333 200.695 52.9C200.455 52.9533 200.195 53 199.915 53.04C199.649 53.0933 199.375 53.1333 199.095 53.16C198.829 53.2 198.582 53.22 198.355 53.22C197.809 53.22 197.309 53.1533 196.855 53.02C196.402 52.9 196.015 52.68 195.695 52.36C195.375 52.04 195.129 51.6067 194.955 51.06C194.782 50.5 194.695 49.8 194.695 48.96V42.5H196.415V48.9C196.415 49.9267 196.569 50.6533 196.875 51.08C197.195 51.4933 197.675 51.7 198.315 51.7C198.529 51.7 198.742 51.6933 198.955 51.68C199.169 51.6533 199.389 51.6067 199.615 51.54V42.5H201.335V52.7Z" fill="black"/>
</svg>
