<svg width="186" height="16" viewBox="0 0 186 16" fill="none" xmlns="http://www.w3.org/2000/svg">
<path d="M7.15523 1.14H8.95523V15H7.15523V8.56H2.59523V15H0.795235V1.14H2.59523V7H7.15523V1.14ZM22.9387 9.76C22.9387 10.5867 22.8653 11.34 22.7187 12.02C22.572 12.6867 22.3453 13.26 22.0387 13.74C21.7453 14.22 21.3653 14.5933 20.8987 14.86C20.4453 15.1267 19.9053 15.26 19.2787 15.26C18.652 15.26 18.1053 15.1267 17.6387 14.86C17.172 14.5933 16.7853 14.22 16.4787 13.74C16.1853 13.26 15.9653 12.6867 15.8187 12.02C15.672 11.34 15.5987 10.5867 15.5987 9.76C15.5987 8.94667 15.672 8.2 15.8187 7.52C15.9653 6.84 16.1853 6.26 16.4787 5.78C16.7853 5.28667 17.172 4.90667 17.6387 4.64C18.1053 4.37333 18.652 4.24 19.2787 4.24C19.9053 4.24 20.4453 4.37333 20.8987 4.64C21.3653 4.90667 21.7453 5.28667 22.0387 5.78C22.3453 6.26 22.572 6.84 22.7187 7.52C22.8653 8.2 22.9387 8.94667 22.9387 9.76ZM21.1387 9.76C21.1387 9.17333 21.1053 8.64 21.0387 8.16C20.972 7.66667 20.8653 7.24667 20.7187 6.9C20.572 6.54 20.3787 6.26667 20.1387 6.08C19.8987 5.88 19.612 5.78 19.2787 5.78C18.932 5.78 18.6387 5.88 18.3987 6.08C18.172 6.26667 17.9787 6.54 17.8187 6.9C17.672 7.24667 17.5653 7.66667 17.4987 8.16C17.432 8.64 17.3987 9.17333 17.3987 9.76C17.3987 10.3467 17.432 10.8867 17.4987 11.38C17.5653 11.86 17.672 12.2733 17.8187 12.62C17.9787 12.9667 18.172 13.24 18.3987 13.44C18.6387 13.6267 18.932 13.72 19.2787 13.72C19.612 13.72 19.8987 13.6267 20.1387 13.44C20.3787 13.24 20.572 12.9667 20.7187 12.62C20.8653 12.2733 20.972 11.86 21.0387 11.38C21.1053 10.8867 21.1387 10.3467 21.1387 9.76ZM33.9965 6.06C33.5698 5.87333 33.0898 5.78 32.5565 5.78C32.0632 5.78 31.6032 5.86667 31.1765 6.04V15H29.4565V4.96C29.8432 4.77333 30.2832 4.62 30.7765 4.5C31.2832 4.36667 31.8365 4.3 32.4365 4.3C32.7565 4.3 33.0765 4.32 33.3965 4.36C33.7165 4.4 34.0165 4.47333 34.2965 4.58L33.9965 6.06ZM41.739 15H40.019V4.5H41.739V15ZM40.879 2.64C40.5723 2.64 40.3057 2.54 40.079 2.34C39.8657 2.12667 39.759 1.84667 39.759 1.5C39.759 1.15333 39.8657 0.879999 40.079 0.68C40.3057 0.466666 40.5723 0.359999 40.879 0.359999C41.1857 0.359999 41.4457 0.466666 41.659 0.68C41.8857 0.879999 41.999 1.15333 41.999 1.5C41.999 1.84667 41.8857 2.12667 41.659 2.34C41.4457 2.54 41.1857 2.64 40.879 2.64ZM53.6827 5.78C53.3894 6.27333 53.0561 6.86 52.6827 7.54C52.3094 8.22 51.9361 8.92 51.5627 9.64C51.2027 10.3467 50.8561 11.0467 50.5227 11.74C50.2027 12.42 49.9427 13.0133 49.7427 13.52H53.8227V15H47.9627V13.76C48.1761 13.1733 48.4494 12.52 48.7827 11.8C49.1161 11.08 49.4627 10.36 49.8227 9.64C50.1961 8.92 50.5561 8.24 50.9027 7.6C51.2627 6.94667 51.5694 6.40667 51.8227 5.98H48.2027V4.5H53.6827V5.78ZM66.5363 9.76C66.5363 10.5867 66.463 11.34 66.3163 12.02C66.1697 12.6867 65.943 13.26 65.6363 13.74C65.343 14.22 64.963 14.5933 64.4963 14.86C64.043 15.1267 63.503 15.26 62.8763 15.26C62.2497 15.26 61.703 15.1267 61.2363 14.86C60.7697 14.5933 60.383 14.22 60.0763 13.74C59.783 13.26 59.563 12.6867 59.4163 12.02C59.2697 11.34 59.1963 10.5867 59.1963 9.76C59.1963 8.94667 59.2697 8.2 59.4163 7.52C59.563 6.84 59.783 6.26 60.0763 5.78C60.383 5.28667 60.7697 4.90667 61.2363 4.64C61.703 4.37333 62.2497 4.24 62.8763 4.24C63.503 4.24 64.043 4.37333 64.4963 4.64C64.963 4.90667 65.343 5.28667 65.6363 5.78C65.943 6.26 66.1697 6.84 66.3163 7.52C66.463 8.2 66.5363 8.94667 66.5363 9.76ZM64.7363 9.76C64.7363 9.17333 64.703 8.64 64.6363 8.16C64.5697 7.66667 64.463 7.24667 64.3163 6.9C64.1697 6.54 63.9763 6.26667 63.7363 6.08C63.4963 5.88 63.2097 5.78 62.8763 5.78C62.5297 5.78 62.2363 5.88 61.9963 6.08C61.7697 6.26667 61.5763 6.54 61.4163 6.9C61.2697 7.24667 61.163 7.66667 61.0963 8.16C61.0297 8.64 60.9963 9.17333 60.9963 9.76C60.9963 10.3467 61.0297 10.8867 61.0963 11.38C61.163 11.86 61.2697 12.2733 61.4163 12.62C61.5763 12.9667 61.7697 13.24 61.9963 13.44C62.2363 13.6267 62.5297 13.72 62.8763 13.72C63.2097 13.72 63.4963 13.6267 63.7363 13.44C63.9763 13.24 64.1697 12.9667 64.3163 12.62C64.463 12.2733 64.5697 11.86 64.6363 11.38C64.703 10.8867 64.7363 10.3467 64.7363 9.76ZM73.0541 4.8C73.5475 4.65333 74.0808 4.53333 74.6541 4.44C75.2275 4.33333 75.7541 4.28 76.2341 4.28C76.7541 4.28 77.2275 4.35333 77.6541 4.5C78.0808 4.63333 78.4408 4.86667 78.7341 5.2C79.0408 5.53333 79.2741 5.98667 79.4341 6.56C79.6075 7.12 79.6941 7.82 79.6941 8.66V15H77.9741V8.8C77.9741 7.76 77.8408 7 77.5741 6.52C77.3075 6.04 76.8075 5.8 76.0741 5.8C75.6875 5.8 75.2541 5.86667 74.7741 6V15H73.0541V4.8ZM99.3688 11.32C99.3688 11.9333 99.3022 12.4867 99.1688 12.98C99.0488 13.46 98.8488 13.8733 98.5688 14.22C98.3022 14.5667 97.9422 14.8333 97.4888 15.02C97.0488 15.2067 96.5088 15.3 95.8688 15.3C95.3622 15.3 94.8755 15.22 94.4088 15.06C93.9422 14.9133 93.5222 14.7 93.1488 14.42L93.7488 13C93.9755 13.1733 94.2755 13.34 94.6488 13.5C95.0355 13.6467 95.4088 13.72 95.7688 13.72C96.0488 13.72 96.2955 13.6867 96.5088 13.62C96.7355 13.5533 96.9288 13.4333 97.0888 13.26C97.2488 13.0733 97.3688 12.8267 97.4488 12.52C97.5288 12.2 97.5688 11.8 97.5688 11.32V1.14H99.3688V11.32ZM108.219 15H106.499V4.5H108.219V15ZM107.359 2.64C107.053 2.64 106.786 2.54 106.559 2.34C106.346 2.12667 106.239 1.84667 106.239 1.5C106.239 1.15333 106.346 0.879999 106.559 0.68C106.786 0.466666 107.053 0.359999 107.359 0.359999C107.666 0.359999 107.926 0.466666 108.139 0.68C108.366 0.879999 108.479 1.15333 108.479 1.5C108.479 1.84667 108.366 2.12667 108.139 2.34C107.926 2.54 107.666 2.64 107.359 2.64ZM121.843 14.7C121.67 14.7667 121.457 14.8333 121.203 14.9C120.963 14.9533 120.703 15 120.423 15.04C120.157 15.0933 119.883 15.1333 119.603 15.16C119.337 15.2 119.09 15.22 118.863 15.22C118.317 15.22 117.817 15.1533 117.363 15.02C116.91 14.9 116.523 14.68 116.203 14.36C115.883 14.04 115.637 13.6067 115.463 13.06C115.29 12.5 115.203 11.8 115.203 10.96V4.5H116.923V10.9C116.923 11.9267 117.077 12.6533 117.383 13.08C117.703 13.4933 118.183 13.7 118.823 13.7C119.037 13.7 119.25 13.6933 119.463 13.68C119.677 13.6533 119.897 13.6067 120.123 13.54V4.5H121.843V14.7ZM141.619 11.32C141.619 11.9333 141.552 12.4867 141.419 12.98C141.299 13.46 141.099 13.8733 140.819 14.22C140.552 14.5667 140.192 14.8333 139.739 15.02C139.299 15.2067 138.759 15.3 138.119 15.3C137.612 15.3 137.125 15.22 136.659 15.06C136.192 14.9133 135.772 14.7 135.399 14.42L135.999 13C136.225 13.1733 136.525 13.34 136.899 13.5C137.285 13.6467 137.659 13.72 138.019 13.72C138.299 13.72 138.545 13.6867 138.759 13.62C138.985 13.5533 139.179 13.4333 139.339 13.26C139.499 13.0733 139.619 12.8267 139.699 12.52C139.779 12.2 139.819 11.8 139.819 11.32V1.14H141.619V11.32ZM150.469 15H148.749V4.5H150.469V15ZM149.609 2.64C149.303 2.64 149.036 2.54 148.809 2.34C148.596 2.12667 148.489 1.84667 148.489 1.5C148.489 1.15333 148.596 0.879999 148.809 0.68C149.036 0.466666 149.303 0.359999 149.609 0.359999C149.916 0.359999 150.176 0.466666 150.389 0.68C150.616 0.879999 150.729 1.15333 150.729 1.5C150.729 1.84667 150.616 2.12667 150.389 2.34C150.176 2.54 149.916 2.64 149.609 2.64ZM159.193 4.5H161.833V5.98H159.193V11.76C159.193 12.48 159.32 12.9867 159.573 13.28C159.84 13.56 160.193 13.7 160.633 13.7C160.86 13.7 161.073 13.6667 161.273 13.6C161.487 13.5333 161.667 13.4533 161.813 13.36L162.153 14.74C161.607 15.06 161.027 15.22 160.413 15.22C159.427 15.22 158.687 14.9467 158.193 14.4C157.713 13.84 157.473 12.92 157.473 11.64V1.68L159.193 1.38V4.5ZM169.479 13.78C169.986 13.78 170.366 13.64 170.619 13.36C170.886 13.0667 171.019 12.6867 171.019 12.22C171.019 11.9267 170.966 11.68 170.859 11.48C170.752 11.2667 170.612 11.08 170.439 10.92C170.266 10.76 170.066 10.62 169.839 10.5C169.612 10.3667 169.386 10.2267 169.159 10.08C168.932 9.94667 168.712 9.79333 168.499 9.62C168.286 9.43333 168.092 9.22667 167.919 9C167.759 8.76 167.626 8.49333 167.519 8.2C167.426 7.89333 167.379 7.54 167.379 7.14C167.379 6.27333 167.646 5.57333 168.179 5.04C168.726 4.50667 169.459 4.24 170.379 4.24C170.766 4.24 171.132 4.29333 171.479 4.4C171.826 4.49333 172.112 4.6 172.339 4.72L171.959 6.1C171.719 5.96667 171.479 5.86667 171.239 5.8C170.999 5.73333 170.739 5.7 170.459 5.7C170.032 5.7 169.692 5.82667 169.439 6.08C169.186 6.32 169.059 6.67333 169.059 7.14C169.059 7.40667 169.106 7.64 169.199 7.84C169.292 8.02667 169.412 8.2 169.559 8.36C169.719 8.50667 169.892 8.64667 170.079 8.78C170.279 8.91333 170.486 9.04 170.699 9.16C170.952 9.30667 171.199 9.46667 171.439 9.64C171.692 9.81333 171.912 10.02 172.099 10.26C172.299 10.4867 172.459 10.76 172.579 11.08C172.699 11.3867 172.759 11.76 172.759 12.2C172.759 13.12 172.486 13.86 171.939 14.42C171.406 14.98 170.619 15.26 169.579 15.26C169.046 15.26 168.566 15.1867 168.139 15.04C167.712 14.8933 167.392 14.76 167.179 14.64L167.539 13.22C167.739 13.3267 168.006 13.4467 168.339 13.58C168.686 13.7133 169.066 13.78 169.479 13.78ZM185.335 14.7C185.162 14.7667 184.949 14.8333 184.695 14.9C184.455 14.9533 184.195 15 183.915 15.04C183.649 15.0933 183.375 15.1333 183.095 15.16C182.829 15.2 182.582 15.22 182.355 15.22C181.809 15.22 181.309 15.1533 180.855 15.02C180.402 14.9 180.015 14.68 179.695 14.36C179.375 14.04 179.129 13.6067 178.955 13.06C178.782 12.5 178.695 11.8 178.695 10.96V4.5H180.415V10.9C180.415 11.9267 180.569 12.6533 180.875 13.08C181.195 13.4933 181.675 13.7 182.315 13.7C182.529 13.7 182.742 13.6933 182.955 13.68C183.169 13.6533 183.389 13.6067 183.615 13.54V4.5H185.335V14.7Z" fill="black"/>
</svg>
